<svg xmlns="http://www.w3.org/2000/svg" viewBox="0 0 150 150"><defs><style>.cls-2{fill:#c6fe55}</style></defs><path d="M0 .2h150v150H0Z" style="fill:none" transform="translate(0 -.2)"/><path d="M47.54 39.23a1.15 1.15 0 0 1 .25-.12c.92-.42 1.85-.83 2.77-1.19V19.68a6 6 0 0 0-6-6H19.69v52.34a60 60 0 0 1 27.85-26.79" class="cls-2"/><path d="M72.87 71.12h5.54A14.57 14.57 0 0 0 93 56.56V40.95c-3-.52-16.71-.81-19.89-.81-30.77-.27-55.81 26.66-53.44 57.28v33.28a6 6 0 0 0 6 6h24.87V93.37a22.31 22.31 0 0 1 22.33-22.25M104.32 111.12a1 1 0 0 1-.24.11c-.92.43-1.85.84-2.78 1.2v18.24a6 6 0 0 0 6 6h24.85V84.33a60 60 0 0 1-27.83 26.79" class="cls-2"/><path d="M132.15 52.94V19.65a6 6 0 0 0-6-6h-24.87v43.32A22.31 22.31 0 0 1 79 79.23h-5.59A14.55 14.55 0 0 0 58.84 93.8v15.61c3.68.55 17.15.86 21 .79a53.07 53.07 0 0 0 21.56-5l.14-.07a53.48 53.48 0 0 0 30.61-52.19" class="cls-2"/></svg>