<svg xmlns="http://www.w3.org/2000/svg" viewBox="0 0 150 150">
    <defs>
        <style>.cls-1{fill:none;}.cls-2{fill:#C6FE55;}</style>
    </defs>
    <path class="cls-1" d="M0,.2H150v150H0Z" transform="translate(0 -0.2)"/>
    <path class="cls-2" d="M47.54,39.43a1.15,1.15,0,0,1,.25-.12c.92-.42,1.85-.83,2.77-1.19V19.88a6,6,0,0,0-6-6H19.69V66.22A60,60,0,0,1,47.54,39.43Z" transform="translate(0 -0.2)"/>
    <path class="cls-2" d="M72.87,71.32h5.54A14.57,14.57,0,0,0,93,56.76V41.15c-3-.52-16.71-.81-19.89-.81C42.34,40.07,17.3,67,19.67,97.62h0V130.9a6,6,0,0,0,6,6H50.54V93.57A22.31,22.31,0,0,1,72.87,71.32Z" transform="translate(0 -0.2)"/>
    <path class="cls-2" d="M104.32,111.32a1,1,0,0,1-.24.11c-.92.43-1.85.84-2.78,1.2v18.24a6,6,0,0,0,6,6h24.85V84.53A60,60,0,0,1,104.32,111.32Z" transform="translate(0 -0.2)"/>
    <path class="cls-2" d="M132.15,53.14h0V19.85a6,6,0,0,0-6-6H101.28V57.17A22.31,22.31,0,0,1,79,79.43H73.41A14.55,14.55,0,0,0,58.84,94v15.61c3.68.55,17.15.86,21,.79a53.07,53.07,0,0,0,21.56-5l.14-.07A53.48,53.48,0,0,0,132.15,53.14Z" transform="translate(0 -0.2)"/>
</svg>