<svg xmlns="http://www.w3.org/2000/svg" fill="#8247e5" viewBox="0 0 18 15"><path d="M4.513.111a.916.916 0 0 1 .874 0l4.05 2.206a.88.88 0 0 1 .463.771v1.435l-1.8.992V3.607L4.95 1.892 1.8 3.607v3.374l3.15 1.715 7.663-4.173a.916.916 0 0 1 .874 0l4.05 2.206A.88.88 0 0 1 18 7.5v4.412a.88.88 0 0 1-.463.771l-4.05 2.206a.916.916 0 0 1-.874 0l-4.05-2.206a.88.88 0 0 1-.463-.771v-1.435l1.8-.992v1.908l3.15 1.715 3.15-1.715V8.019l-3.15-1.716-7.663 4.174a.916.916 0 0 1-.874 0L.463 8.271A.88.88 0 0 1 0 7.5V3.088a.88.88 0 0 1 .463-.771L4.513.11z"/></svg>