<svg xmlns="http://www.w3.org/2000/svg" viewBox="0 0 200 200"><circle cx="100" cy="100" r="100" fill="#3d8545"/><g fill="#fff"><path d="M72.54 64.23c.08-.05.16-.09.25-.12.92-.42 1.85-.83 2.77-1.19V44.68c0-3.31-2.69-6-6-6H44.69v52.34a59.96 59.96 0 0 1 27.85-26.79Z"/><path d="M97.87 96.12h5.54c8.05.01 14.58-6.5 14.59-14.55V65.95c-3-.52-16.71-.81-19.89-.81-30.77-.27-55.81 26.66-53.44 57.28v33.28c0 3.31 2.69 6 6 6h24.87v-43.33c.03-12.31 10.02-22.26 22.33-22.25ZM129.32 136.12c-.07.05-.16.08-.24.11-.92.43-1.85.84-2.78 1.2v18.24c0 3.31 2.69 6 6 6h24.85v-52.34a60.012 60.012 0 0 1-27.83 26.79Z"/><path d="M157.15 77.94V44.65c0-3.31-2.69-6-6-6h-24.87v43.32c-.03 12.29-9.99 22.24-22.28 22.26h-5.59c-8.04-.01-14.56 6.49-14.57 14.53v15.65c3.68.55 17.15.86 21 .79 7.46-.13 14.8-1.84 21.56-5l.14-.07c20.01-9.4 32.17-30.14 30.61-52.19Z"/></g></svg>