<svg xmlns="http://www.w3.org/2000/svg" viewBox="0 0 137 121">
  <defs>
    <linearGradient id="a" x1="11.646" y1="101.841" x2="129.167" y2="15.914" gradientUnits="userSpaceOnUse">
      <stop stop-color="#A726C1"/>
      <stop offset=".88" stop-color="#803BDF"/>
      <stop offset="1" stop-color="#7B3FE4"/>
    </linearGradient>
  </defs>
  <path d="m101.717 85.215 32.495-18.708A5.576 5.576 0 0 0 137 61.69V24.267a5.58 5.58 0 0 0-2.788-4.816L101.717.74a5.608 5.608 0 0 0-5.575 0l-32.495 18.71a5.576 5.576 0 0 0-2.788 4.816V91.14l-22.786 13.116-22.785-13.116V64.897l22.785-13.116 15.032 8.651V42.83L40.86 35.784a5.605 5.605 0 0 0-2.788-.741c-.978 0-1.943.256-2.787.74L2.788 54.495A5.576 5.576 0 0 0 0 59.311v37.42a5.58 5.58 0 0 0 2.788 4.817l32.495 18.711a5.614 5.614 0 0 0 5.575 0l32.495-18.708a5.58 5.58 0 0 0 2.788-4.817V29.862l.41-.235 22.376-12.881 22.785 13.12v26.238L98.927 69.223l-15.008-8.64v17.602l12.22 7.04a5.615 5.615 0 0 0 5.575 0l.003-.01Z" fill="url(#a)"/>
</svg>