<svg xmlns="http://www.w3.org/2000/svg" fill="none" viewBox="0 0 121.38 121.15"><path d="M25.223 57.583a5.143 5.143 0 0 1 5.168-5.143l8.568.028a5.151 5.151 0 0 1 5.15 5.151v32.4c.966-.286 2.2-.591 3.56-.911a4.291 4.291 0 0 0 3.309-4.177V44.744a5.152 5.152 0 0 1 5.15-5.152h8.595a5.152 5.152 0 0 1 5.15 5.152v37.3s2.15-.87 4.244-1.754a4.3 4.3 0 0 0 2.625-3.957V31.866a5.15 5.15 0 0 1 5.15-5.151h8.585a5.151 5.151 0 0 1 5.146 5.151v36.617c7.443-5.394 14.986-11.882 20.972-19.683a8.652 8.652 0 0 0 1.316-8.072 60.643 60.643 0 0 0-33.43-35.843A60.636 60.636 0 0 0 8.056 90.836a7.668 7.668 0 0 0 7.316 3.79c1.624-.143 3.646-.345 6.05-.627a4.29 4.29 0 0 0 3.805-4.258V57.583" fill="#12161C"/><path d="M25.04 109.544a60.651 60.651 0 0 0 63.208 5.001 60.653 60.653 0 0 0 33.13-54.062c0-1.4-.065-2.778-.158-4.152-22.163 33.055-63.085 48.508-96.18 53.213Z" fill="#F0B90B"/></svg>