<svg
    xmlns="http://www.w3.org/2000/svg"
    viewBox="0 0 18 15"
    fill="#8247e5"
>
    <path d="M4.51292,0.11103761581420901 C4.78474,-0.03701238418579056 5.115259999999999,-0.03701238418579056 5.387080000000001,0.11103761581420901 L9.437100000000001,2.3169176158142086 C9.7228,2.4725376158142094 9.9,2.7677876158142087 9.9,3.0882376158142097 V4.522797615814209 L8.1,5.5146976158142085 V3.6074076158142088 L4.95,1.891727615814209 L1.7999999999999998,3.6074076158142088 V6.980797615814209 L4.95,8.69649761581421 L12.6129,4.522797615814209 C12.8847,4.37474761581421 13.2153,4.37474761581421 13.487100000000002,4.522797615814209 L17.5371,6.728697615814209 C17.8228,6.884297615814209 18,7.17959761581421 18,7.499997615814209 V11.911797615814208 C18,12.232197615814208 17.8228,12.527497615814209 17.5371,12.683097615814209 L13.487100000000002,14.888997615814208 C13.2153,15.036997615814208 12.8847,15.036997615814208 12.6129,14.888997615814208 L8.5629,12.683097615814209 C8.2772,12.527497615814209 8.1,12.232197615814208 8.1,11.911797615814208 V10.477197615814209 L9.9,9.48529761581421 V11.39259761581421 L13.05,13.108297615814209 L16.2,11.39259761581421 V8.019197615814209 L13.05,6.303497615814209 L5.387080000000001,10.477197615814209 C5.115259999999999,10.625197615814209 4.78474,10.625197615814209 4.51292,10.477197615814209 L0.46292,8.271297615814209 C0.17720000000000002,8.11569761581421 0,7.820397615814208 0,7.499997615814209 V3.0882376158142097 C0,2.7677876158142087 0.17720000000000002,2.4725376158142094 0.46292,2.3169176158142086 L4.51292,0.11103761581420901 z"/>
</svg>