<svg xmlns="http://www.w3.org/2000/svg" viewBox="0 0 29.06 34.18"><path d="m3.27 17.09.02 6.61 5.616 3.304v3.871L.004 25.652V15.156zm0-6.61v3.852L0 12.395V8.543l3.27-1.934 3.289 1.934zm7.984-1.937 3.27-1.934 3.285 1.934-3.286 1.937zm0 0"/><path d="M5.637 22.332v-3.871l3.27 1.934v3.851zm5.617 6.059 3.27 1.937 3.285-1.937v3.851l-3.286 1.938-3.27-1.938zm11.25-19.848 3.27-1.934 3.285 1.934v3.852l-3.286 1.937V10.48zm3.27 15.156.019-6.61 3.27-1.933v10.496l-8.903 5.223v-3.871zm0 0"/><path d="m23.426 22.332-3.27 1.914v-3.851l3.27-1.934zm0 0"/><path d="m23.426 11.848.02 3.87-5.634 3.305v6.63l-3.269 1.917-3.273-1.918v-6.629L5.637 15.72v-3.871l3.285-1.934 5.598 3.32 5.632-3.32 3.29 1.934zM5.636 5.242 14.524 0l8.903 5.242-3.27 1.934-5.633-3.32-5.617 3.32zm0 0"/></svg>