<svg xmlns="http://www.w3.org/2000/svg" viewBox="0 0 128 128"><defs><mask id="a"><rect width="100%" height="100%" fill="#fff"/><path d="M72.025 48.606c0-11.479-5.533-21.368-9.772-24.606 0 0-.294-.177-.294.294-.353 22.193-11.597 28.256-17.837 36.321-14.304 18.72-1 39.205 12.539 42.973 7.594 2.119-1.766-3.768-2.943-16.13-1.413-15.01 18.307-26.43 18.307-38.852"/><path d="M79.442 56.2c-.059-.059-.176-.059-.294 0l-.059.059c-.236 2.767-3.296 8.771-7.123 14.246-13.01 18.602-5.592 27.55-1.413 32.377 2.414 2.825 0 0 6.064-2.885.47-.235 11.773-6.24 13.01-19.838 1.235-13.245-7.183-21.545-10.185-23.959"/></mask></defs><rect width="100%" height="100%" mask="url(#a)" rx="50%"/></svg>