<svg xmlns="http://www.w3.org/2000/svg" fill="none" viewBox="0 0 128 128"><g clip-path="url(#a)"><rect width="128" height="128" fill="#E84142" rx="64"/><g clip-path="url(#b)"><path fill="#fff" d="M103.473 21.957H24.442v71.83h79.031z"/><path fill="#E84142" fill-rule="evenodd" d="M127.957 64c0 35.3-28.634 63.915-63.957 63.915S.043 99.299.043 64C.043 28.7 28.677.085 64 .085S127.957 28.701 127.957 64m-82.08 25.435H33.463c-2.608 0-3.897 0-4.682-.502a3.152 3.152 0 0 1-1.43-2.466c-.047-.926.597-2.057 1.886-4.318l30.647-53.984c1.304-2.293 1.964-3.439 2.797-3.863a3.164 3.164 0 0 1 2.86 0c.832.424 1.492 1.57 2.796 3.863l6.3 10.99.033.057c1.408 2.459 2.122 3.706 2.434 5.015a9.318 9.318 0 0 1 0 4.365c-.314 1.319-1.02 2.575-2.45 5.072l-16.1 28.438-.04.073c-1.419 2.48-2.137 3.737-3.133 4.685a9.372 9.372 0 0 1-3.818 2.214c-1.304.36-2.765.36-5.688.36m31.345 0h17.785c2.624 0 3.944 0 4.73-.518a3.143 3.143 0 0 0 1.43-2.48c.045-.897-.585-1.983-1.82-4.113l-.129-.221-8.909-15.23-.1-.172c-1.253-2.116-1.885-3.184-2.696-3.597a3.13 3.13 0 0 0-2.844 0c-.817.424-1.477 1.539-2.781 3.784l-8.877 15.23-.03.053c-1.3 2.241-1.95 3.362-1.903 4.28a3.18 3.18 0 0 0 1.43 2.482c.77.502 2.09.502 4.714.502" clip-rule="evenodd"/></g></g><defs><clipPath id="a"><rect width="128" height="128" fill="#fff" rx="64"/></clipPath><clipPath id="b"><path fill="#fff" d="M0 0h128v128H0z"/></clipPath></defs></svg>