<svg xmlns="http://www.w3.org/2000/svg" fill="none" viewBox="0 0 128 128"><rect width="128" height="128" fill="#2c2e34" rx="64"/><path fill="#F0B90B" d="m37.657 64 .042 15.473 13.147 7.736v9.06L30.005 84.043V59.475L37.657 64Zm0-15.473v9.017L30 53.014v-9.016l7.657-4.53 7.694 4.53-7.694 4.529Zm18.68-4.53 7.657-4.529 7.694 4.53-7.694 4.529-7.657-4.53Z"/><path fill="#F0B90B" d="M43.19 76.266v-9.059l7.656 4.53v9.016l-7.656-4.487Zm13.147 14.188 7.657 4.53 7.694-4.53v9.017L63.994 104l-7.657-4.53v-9.016Zm26.332-46.456 7.657-4.53 7.694 4.53v9.016l-7.694 4.53v-9.017l-7.657-4.53Zm7.657 35.475L90.368 64l7.657-4.53v24.57L77.183 96.263v-9.058l13.143-7.732Z"/><path fill="#F0B90B" d="m84.835 76.266-7.656 4.487v-9.017l7.656-4.529v9.059Z"/><path fill="#F0B90B" d="m84.835 51.734.043 9.059-13.185 7.736v15.51l-7.657 4.488-7.657-4.487V68.53l-13.185-7.737v-9.059l7.69-4.53 13.105 7.775 13.185-7.774 7.694 4.53h-.033ZM43.19 36.266 63.994 24l20.841 12.266-7.656 4.53-13.185-7.775-13.148 7.774-7.656-4.53Z"/></svg>