<svg xmlns="http://www.w3.org/2000/svg" viewBox="0 0 105.53 106"><path fill="#001F68" fill-rule="evenodd" clip-rule="evenodd" d="M14.455 0H91.07c7.983 0 14.455 6.501 14.455 14.52v76.96c0 8.019-6.472 14.52-14.455 14.52H14.455C6.472 106 0 99.499 0 91.48V14.52C0 6.501 6.472 0 14.455 0Zm38.343 13.473a9.71 9.71 0 0 0-4.867 1.308l-.005.003-25.322 14.533-.011.006a9.75 9.75 0 0 0-3.097 2.85 2.498 2.498 0 0 0-.697 1.164 9.796 9.796 0 0 0-1.065 4.433v29.08c.002 1.71.45 3.39 1.302 4.873a9.753 9.753 0 0 0 3.556 3.574l.012.007 25.322 14.534.005.003a9.715 9.715 0 0 0 3.526 1.215c.387.247.848.39 1.341.39.494 0 .954-.143 1.341-.39a9.715 9.715 0 0 0 3.526-1.215l.005-.003 25.318-14.534.01-.006a9.753 9.753 0 0 0 3.56-3.573 9.795 9.795 0 0 0 1.304-4.874V37.77a9.796 9.796 0 0 0-1.07-4.446 2.504 2.504 0 0 0-.686-1.142 9.75 9.75 0 0 0-3.102-2.859l-.012-.006L57.67 14.784l-.005-.003a9.712 9.712 0 0 0-4.867-1.308Zm2.5 71.961L80.49 70.973l.004-.002a4.752 4.752 0 0 0 1.73-1.74 4.793 4.793 0 0 0 .639-2.385V37.767L55.298 53.785v31.65Zm-5-31.649L22.734 37.77v29.077c.001.838.221 1.66.637 2.385A4.753 4.753 0 0 0 25.1 70.97l.005.003 25.194 14.46V53.785Zm2.5-4.33 27.447-15.95-25.073-14.39-.01-.005a4.712 4.712 0 0 0-4.728 0l-.01.005-25.074 14.39 27.448 15.95Z"/></svg>