<svg xmlns="http://www.w3.org/2000/svg" fill="#41e6af" viewBox="5 8.3 141.2 133.4"><path d="m146.1 65.2-4-6.7-21.9-36.8h-.1l-.7-1.3h-8L80.3 75.1l31.6 54.4h8l.2-.3 26.1-44.7h-16.1l-13.9 24.7L96.4 75l19.4-34.2 14.1 24.3zM24.4 56.3 39 31.4l-4.9-7.9-3.4-5.6L5.7 62 5 63.2l4 7h62.9l31.7-54.3-4.4-7.6-44 .1h-.7l-7-.1 3.7 7 3.7 7 28.8-.1-19.8 34.1z"/><path d="M55.5 27.5c-1.1 0-2.3.2-3.5.6-1.3.4-2.6 1-3.8 1.7-3.4 2.1-5.8 5.1-6.2 7.9-.2 1.3.1 2.4.8 3.2.1.2.3.3.4.5.1.1.2.1.3.2l.2.2c.2.1.3.2.5.3 2.1 1 5.4.8 8.6-.7l.1-.1c.3-.1.6-.3.9-.4.3-.1.5-.3.8-.5l.9-.6c.3-.2.5-.4.8-.6l.2-.1c.2-.2.4-.3.6-.5l.2-.2c.2-.1.3-.3.4-.4.1-.1.2-.2.3-.4.1-.2.3-.3.4-.5l.2-.2c.1-.2.3-.3.4-.5l.2-.2c.1-.2.2-.3.3-.5v-.1l.1-.2c.2-.2.3-.5.4-.7.1-.2.2-.5.3-.7l.1-.1c0-.1.1-.2.1-.2 0-.1 0-.1.1-.2 0-.2.1-.3.1-.5s.1-.2.1-.3v-2c0-.2-.1-.3-.2-.5s-.2-.3-.3-.5c-.7-1.5-2.6-2.2-4.8-2.2"/><path d="M62.8 34.8c0 .2-.1.3-.2.5 0 .1 0 .1-.1.2-.1.3-.2.5-.4.8-1.1 2.1-2.9 4.1-5.1 5.7l-.9.6c-.3.2-.6.4-.9.5h-.1c-.1.1-.2.1-.3.2-.2.1-.3.2-.5.3h-.1c-.1 0-.2.1-.3.1-.2.1-.4.2-.6.2l-.2.1H53c-.1 0-.2.1-.3.1-.2.1-.4.1-.6.2l-.2.1h-.1c-.2.1-.4.1-.6.2-.1 0-.2.1-.4.1h-.1c-.2 0-.4.1-.5.1-.1 0-.3 0-.4.1h-.1c-.1 0-.2 0-.3.1h-.3c-.3 0-.7.1-1 .1h-1.3c-.2 0-.4 0-.6-.1-.1 0-.2 0-.3-.1-.2 0-.4-.1-.6-.1-.1 0-.2-.1-.3-.1l5.5 8.9 11.8-.1 6.1-10.8-5.5-9c0 .1 0 .2-.1.3v.2c0 .1-.1.2-.1.4.1.1.1.2.1.2M125.5 67.3c.6.9 1 2 1.3 3.3.3 1.3.5 2.7.5 4.1 0 4-1.3 7.6-3.5 9.4-1 .8-2.1 1.2-3.2 1-.2 0-.4-.1-.6-.1-.1 0-.2-.1-.3-.1-.1 0-.2-.1-.3-.1-.2-.1-.4-.2-.5-.3-2-1.3-3.5-4.2-3.9-7.7v-.1c0-.3-.1-.6-.1-1v-2c0-.3 0-.6.1-.9v-.2c0-.2.1-.5.1-.7v-.3c0-.2.1-.4.1-.6 0-.2.1-.3.1-.5.1-.2.1-.4.2-.6 0-.1.1-.2.1-.3.1-.2.1-.4.2-.6l.1-.3c.1-.2.2-.3.2-.5v-.1l.1-.2c.1-.3.3-.5.4-.7.1-.2.3-.4.4-.6l.1-.1.2-.2c.1-.1.1-.1.1-.2l.3-.3.2-.2.2-.2.3-.3.2-.1c.1-.1.3-.2.4-.3.1 0 .1 0 .2-.1.1 0 .2-.1.2-.1s.1 0 .1-.1h.1c.2 0 .3-.1.5-.1h.6c2.1-.1 3.6 1.1 4.8 3"/><path d="M115.4 64.9c-.1.1-.2.3-.3.4 0 .1-.1.1-.1.2-.2.2-.3.5-.5.7-1.3 2-2 4.6-2.2 7.3v2.6c0 .2 0 .4.1.6v.4c0 .2.1.4.1.6V78c0 .1 0 .2.1.3 0 .2.1.4.1.6l.1.2v.1c0 .2.1.4.2.6 0 .1.1.2.1.3v.1c.1.2.1.3.2.5 0 .1.1.2.2.4v.1c0 .1.1.2.1.3.1.1.1.2.1.2.1.3.3.6.5.9l.1.1c.2.3.3.5.5.7 0 .1.1.1.1.2l.1.1c.1.2.3.3.4.5.1.1.1.2.2.2.2.2.3.3.4.5.1.1.2.1.2.2h-10.5L99.6 75l6-10.8h10.5l-.2.2-.1.1zc.1 0 0 0 0 0M55.5 122.4c-1.1 0-2.3-.2-3.5-.6-1.3-.4-2.6-1-3.8-1.7-3.4-2.1-5.8-5.1-6.2-7.9-.2-1.3.1-2.4.8-3.2.1-.2.3-.3.4-.5.1-.1.2-.1.3-.2l.2-.2c.2-.1.3-.2.5-.3 2.1-1 5.4-.8 8.6.7l.1.1c.3.1.6.3.9.4.3.1.5.3.8.5l.9.6c.3.2.5.4.8.6l.2.1c.2.2.4.3.6.5l.2.2c.2.1.3.3.4.4.1.1.2.2.3.4.1.2.3.3.4.5l.2.2c.1.2.3.3.4.5l.2.2c.1.2.2.3.3.5v.1l.1.2c.2.2.3.5.4.7.1.2.2.5.3.7l.1.1c0 .1.1.2.1.2 0 .1 0 .1.1.2 0 .2.1.3.1.5s.1.2.1.3v2c0 .2-.1.3-.2.5s-.2.3-.3.5c-.7 1.5-2.6 2.3-4.8 2.2"/><path d="M62.8 115.1c0-.2-.1-.3-.2-.5 0-.1 0-.1-.1-.2-.1-.3-.2-.5-.4-.8-1.1-2.1-2.9-4.1-5.1-5.7l-.9-.6c-.3-.2-.6-.4-.9-.5h-.1c-.1-.1-.2-.1-.3-.2-.2-.1-.3-.2-.5-.3h-.1c-.1 0-.2-.1-.3-.1-.2-.1-.4-.2-.6-.2l-.2-.1H53c-.1 0-.2-.1-.3-.1-.2-.1-.4-.1-.6-.2l-.2-.1h-.1c-.2-.1-.4-.1-.6-.2-.1 0-.2-.1-.4-.1h-.1c-.2 0-.4-.1-.5-.1-.1 0-.3 0-.4-.1h-.1c-.1 0-.2 0-.3-.1h-.3c-.3 0-.7-.1-1-.1h-1.3c-.2 0-.4 0-.6.1-.1 0-.2 0-.3.1-.2 0-.4.1-.6.1-.1 0-.2.1-.3.1l5.5-8.9 11.8.1 6.1 10.8-5.5 9c0-.1 0-.2-.1-.3v-.2c0-.1-.1-.2-.1-.4.1-.1.1-.2.1-.2"/><path d="m83.7 127.7-28.8-.1-4.4 8.3-3 5.7 7.7-.1v.1l44 .1 4.4-7.6-31.7-54.3L9 79.7l-4 7 .8 1.3h-.1l25 44 8.3-13.5-14.6-24.8h39.5z"/></svg>