<svg xmlns="http://www.w3.org/2000/svg" viewBox="0 0 125.02 141.01"><g clip-path="url(#a)"><path fill="#213147" d="M4.746 42.861V98.14a9.87 9.87 0 0 0 4.942 8.551l47.882 27.645a9.895 9.895 0 0 0 9.873 0l47.882-27.645a9.871 9.871 0 0 0 4.942-8.551V42.86a9.871 9.871 0 0 0-4.942-8.551L67.443 6.665a9.896 9.896 0 0 0-9.873 0L9.677 34.31a9.86 9.86 0 0 0-4.93 8.551Z"/><path fill="#12AAFF" d="m72.952 81.221-6.829 18.723a2.397 2.397 0 0 0 0 1.608l11.748 32.216 13.588-7.846-16.308-44.7c-.37-1.03-1.829-1.03-2.199 0Zm13.691-31.486c-.37-1.03-1.829-1.03-2.199 0l-6.829 18.723a2.398 2.398 0 0 0 0 1.608l19.248 52.743 13.588-7.845-23.808-65.23Z"/><path fill="#9DCCED" d="M62.5 8.737c.336 0 .671.092.972.254l51.817 29.913c.602.347.973.995.973 1.678v59.813c0 .695-.371 1.331-.973 1.678l-51.817 29.913c-.29.173-.636.254-.972.254-.336 0-.671-.092-.972-.254L9.71 102.096a1.948 1.948 0 0 1-.973-1.678V40.593c0-.694.37-1.33.973-1.678L61.528 9.003c.3-.174.636-.266.972-.266M62.5 0c-1.84 0-3.692.474-5.347 1.435l-51.806 29.9A10.686 10.686 0 0 0 0 40.594v59.814c0 3.818 2.037 7.348 5.347 9.257l51.817 29.913a10.74 10.74 0 0 0 5.348 1.435c1.84 0 3.692-.475 5.347-1.435l51.817-29.913a10.686 10.686 0 0 0 5.347-9.257V40.593c0-3.818-2.037-7.348-5.347-9.257L67.847 1.435A10.654 10.654 0 0 0 62.5 0"/><path fill="#213147" d="m28.229 122.879 4.768-13.053 9.595 7.973-8.97 8.193z"/><path fill="#fff" d="M58.136 36.312H44.999c-.983 0-1.863.613-2.199 1.539l-28.16 77.182 13.589 7.846 31.007-84.994a1.164 1.164 0 0 0-1.1-1.573m22.987 0H67.987c-.984 0-1.864.613-2.2 1.539L33.635 125.98l13.588 7.846 35-95.94a1.173 1.173 0 0 0-1.1-1.574"/></g><defs><clipPath id="a"><path fill="#fff" d="M0 0h125v141H0z"/></clipPath></defs></svg>