<svg xmlns="http://www.w3.org/2000/svg" viewBox="2 2 20 19"><path d="M12 2C6 2 6 8 6 8v1l-.063-.001c-.34 0-1.937.07-1.937 1.396C4 11.94 5.697 12 5.965 12H6c0 1-1.652 2.171-2.736 2.442-1.01.392-1.251 1.061-1.264 1.568a1.67 1.67 0 0 0 .106.643c.377.885 1.497 1.342 2.594 1.342C4.738 19.434 5.776 20 6.471 20c.794 0 1.634-.388 1.634-.388C8.146 19.646 9.425 21 12 21s3.854-1.354 3.896-1.388c0 0 .839.388 1.634.388.695 0 1.732-.566 1.77-2.005 1.097 0 2.217-.457 2.594-1.342.04-.095.114-.34.106-.643-.013-.507-.254-1.176-1.264-1.568C19.652 14.171 18 13 18 12h.035c.268 0 1.965-.06 1.965-1.605 0-1.326-1.597-1.396-1.937-1.396L18 9V8s0-6-6-6z"/></svg>