<svg xmlns="http://www.w3.org/2000/svg" viewBox="0 0 24 24"><path d="M23.975 12.518c-2.521-.794-5.461-.888-8.391-.246a35.961 35.961 0 0 0-1.559-3.346c2.871-1.063 5.322-2.646 6.873-4.947C22.818 6.108 24 8.917 24 12c0 .175-.02.345-.025.518zM20.12 3.192c-1.427 2.235-3.808 3.758-6.621 4.776A36.947 36.947 0 0 0 8.069.674 11.935 11.935 0 0 1 12 0c3.133 0 5.98 1.217 8.12 3.192zM6.913 1.147a34.853 34.853 0 0 1 5.42 7.209C8.507 9.517 4.074 9.874.198 9.884.892 6.007 3.45 2.778 6.913 1.147zM0 12c0-.346.022-.686.052-1.023 4.066-.002 8.753-.381 12.808-1.651a36.457 36.457 0 0 1 1.527 3.247c-4.108 1.189-8.055 3.865-10.621 8.135C1.453 18.518 0 15.428 0 12zm4.599 9.428c2.433-4.146 6.237-6.729 10.18-7.85 1.156 3.066 1.885 6.248 2.107 9.371A11.903 11.903 0 0 1 12 24c-2.793 0-5.36-.967-7.401-2.572zm13.38.961c-.215-3.074-.902-6.145-1.998-9.102 2.75-.574 5.504-.459 7.847.322.017.006.034.002.051.006a12.013 12.013 0 0 1-5.9 8.774z"/></svg>