<svg xmlns="http://www.w3.org/2000/svg" viewBox="83.5 104.28 375 250">
  <path d="M208.5,104.28c-69.04,0-125,55.96-125,125s55.96,125,125,125s125-55.96,125-125S277.54,104.28,208.5,104.28z 	 M208.5,266.78c-20.71,0-37.5-16.79-37.5-37.5s16.79-37.5,37.5-37.5s37.5,16.79,37.5,37.5c0.03,20.68-16.72,37.47-37.4,37.5 	C208.57,266.78,208.53,266.78,208.5,266.78z" opacity="0.8"></path>
  <path d="M349,198.03c31.76,9.14,69.25,0,69.25,0c-10.88,47.5-45.38,77.25-95.13,80.87 	c-19.72,45.77-64.79,75.41-114.62,75.38L246,235.09c38.55-122.51,58.31-130.81,149.73-130.81h62.77 	C448,150.53,411.81,185.86,349,198.03z"></path>
</svg>